<svg xmlns="http://www.w3.org/2000/svg" xmlns:xlink="http://www.w3.org/1999/xlink" width="500" zoomAndPan="magnify" viewBox="0 0 375 374.999991" height="500" preserveAspectRatio="xMidYMid meet" version="1.0"><defs><clipPath id="24751ae000"><path d="M 29.890625 150 L 71 150 L 71 233 L 29.890625 233 Z M 29.890625 150 " clip-rule="nonzero"/></clipPath><clipPath id="e1f4acad64"><path d="M 315 150 L 356.84375 150 L 356.84375 233 L 315 233 Z M 315 150 " clip-rule="nonzero"/></clipPath><clipPath id="c2d4f6434d"><path d="M 178 43.753906 L 209 43.753906 L 209 75 L 178 75 Z M 178 43.753906 " clip-rule="nonzero"/></clipPath><clipPath id="abceaac6ae"><path d="M 172 268 L 224 268 L 224 309.253906 L 172 309.253906 Z M 172 268 " clip-rule="nonzero"/></clipPath></defs><path fill="#1190d8" d="M 239.328125 191.820312 C 233.6875 191.820312 229.109375 187.25 229.109375 181.609375 C 229.109375 175.972656 233.6875 171.398438 239.328125 171.398438 C 244.972656 171.398438 249.546875 175.972656 249.546875 181.609375 C 249.546875 187.25 244.972656 191.820312 239.328125 191.820312 Z M 193.34375 224.953125 C 179.234375 224.953125 167.796875 215.8125 167.796875 204.53125 L 218.890625 204.53125 C 218.890625 215.8125 207.453125 224.953125 193.34375 224.953125 Z M 147.359375 191.820312 C 141.71875 191.820312 137.140625 187.25 137.140625 181.609375 C 137.140625 175.972656 141.71875 171.398438 147.359375 171.398438 C 153.003906 171.398438 157.578125 175.972656 157.578125 181.609375 C 157.578125 187.25 153.003906 191.820312 147.359375 191.820312 Z M 234.21875 130.554688 L 152.46875 130.554688 C 135.539062 130.554688 120.210938 137.410156 109.117188 148.5 C 98.019531 159.585938 91.15625 174.902344 91.15625 191.820312 C 91.15625 225.660156 118.605469 253.089844 152.46875 253.089844 L 234.21875 253.089844 C 251.148438 253.089844 266.476562 246.234375 277.574219 235.144531 C 288.667969 224.058594 295.53125 208.742188 295.53125 191.820312 C 295.53125 157.984375 268.082031 130.554688 234.21875 130.554688 " fill-opacity="1" fill-rule="nonzero"/><path fill="#1190d8" d="M 193.34375 293.9375 L 162.6875 293.9375 C 148.894531 293.9375 135.511719 291.238281 122.910156 285.910156 C 110.742188 280.765625 99.8125 273.402344 90.429688 264.027344 C 81.046875 254.652344 73.679688 243.730469 68.535156 231.570312 C 63.203125 218.980469 60.5 205.605469 60.5 191.820312 C 60.5 178.039062 63.203125 164.664062 68.535156 152.074219 C 73.679688 139.914062 81.046875 128.992188 90.429688 119.617188 C 99.8125 110.238281 110.742188 102.878906 122.910156 97.734375 C 135.511719 92.40625 148.894531 89.707031 162.6875 89.707031 L 224 89.707031 C 237.792969 89.707031 251.175781 92.40625 263.777344 97.734375 C 275.945312 102.878906 286.875 110.238281 296.257812 119.617188 C 305.640625 128.992188 313.007812 139.914062 318.15625 152.074219 C 323.488281 164.664062 326.1875 178.039062 326.1875 191.820312 L 315.96875 191.820312 C 315.96875 141.144531 274.710938 99.917969 224 99.917969 L 162.6875 99.917969 C 111.976562 99.917969 70.71875 141.144531 70.71875 191.820312 C 70.71875 242.5 111.976562 283.726562 162.6875 283.726562 L 193.34375 283.726562 L 193.34375 293.9375 " fill-opacity="1" fill-rule="nonzero"/><g clip-path="url(#24751ae000)"><path fill="#1190d8" d="M 70.71875 232.667969 C 48.144531 232.667969 29.84375 214.378906 29.84375 191.820312 C 29.84375 169.261719 48.144531 150.976562 70.71875 150.976562 L 70.71875 232.667969 " fill-opacity="1" fill-rule="nonzero"/></g><g clip-path="url(#e1f4acad64)"><path fill="#1190d8" d="M 315.96875 232.667969 C 338.546875 232.667969 356.84375 214.378906 356.84375 191.820312 C 356.84375 169.261719 338.546875 150.976562 315.96875 150.976562 L 315.96875 232.667969 " fill-opacity="1" fill-rule="nonzero"/></g><path fill="#1190d8" d="M 218.890625 135.660156 C 218.890625 146.9375 207.453125 156.082031 193.34375 156.082031 C 179.234375 156.082031 167.796875 146.9375 167.796875 135.660156 C 167.796875 124.378906 179.234375 115.234375 193.34375 115.234375 C 207.453125 115.234375 218.890625 124.378906 218.890625 135.660156 " fill-opacity="1" fill-rule="nonzero"/><g clip-path="url(#c2d4f6434d)"><path fill="#1190d8" d="M 208.671875 59.074219 C 208.671875 67.53125 201.808594 74.390625 193.34375 74.390625 C 184.878906 74.390625 178.015625 67.53125 178.015625 59.074219 C 178.015625 50.613281 184.878906 43.753906 193.34375 43.753906 C 201.808594 43.753906 208.671875 50.613281 208.671875 59.074219 " fill-opacity="1" fill-rule="nonzero"/></g><g clip-path="url(#abceaac6ae)"><path fill="#1190d8" d="M 224 288.832031 C 224 300.109375 212.5625 309.253906 198.453125 309.253906 C 184.34375 309.253906 172.90625 300.109375 172.90625 288.832031 C 172.90625 277.550781 184.34375 268.410156 198.453125 268.410156 C 212.5625 268.410156 224 277.550781 224 288.832031 " fill-opacity="1" fill-rule="nonzero"/></g><path fill="#1190d8" d="M 198.453125 151.191406 L 188.234375 151.191406 L 188.234375 59.074219 L 198.453125 59.074219 L 198.453125 151.191406 " fill-opacity="1" fill-rule="nonzero"/></svg>